<svg width="728" height="255" viewBox="0 0 728 255" fill="none" xmlns="http://www.w3.org/2000/svg">
<path opacity="0.05" d="M332.92 118V34H363.04L379.72 107.2H381.88V34H397.48V118H367.36L350.68 44.8H348.52V118H332.92ZM413.071 118V34H467.071V48.4H428.911V68.44H463.711V82.84H428.911V103.6H467.791V118H413.071ZM479.276 118V34H495.116V103.6H533.516V118H479.276ZM573.235 119.68C566.755 119.68 561.035 118.52 556.075 116.2C551.115 113.88 547.235 110.56 544.435 106.24C541.635 101.92 540.235 96.72 540.235 90.64V87.28H555.835V90.64C555.835 95.68 557.395 99.48 560.515 102.04C563.635 104.52 567.875 105.76 573.235 105.76C578.675 105.76 582.715 104.68 585.355 102.52C588.075 100.36 589.435 97.6 589.435 94.24C589.435 91.92 588.755 90.04 587.395 88.6C586.115 87.16 584.195 86 581.635 85.12C579.155 84.16 576.115 83.28 572.515 82.48L569.755 81.88C563.995 80.6 559.035 79 554.875 77.08C550.795 75.08 547.635 72.48 545.395 69.28C543.235 66.08 542.155 61.92 542.155 56.8C542.155 51.68 543.355 47.32 545.755 43.72C548.235 40.04 551.675 37.24 556.075 35.32C560.555 33.32 565.795 32.32 571.795 32.32C577.795 32.32 583.115 33.36 587.755 35.44C592.475 37.44 596.155 40.48 598.795 44.56C601.515 48.56 602.875 53.6 602.875 59.68V63.28H587.275V59.68C587.275 56.48 586.635 53.92 585.355 52C584.155 50 582.395 48.56 580.075 47.68C577.755 46.72 574.995 46.24 571.795 46.24C566.995 46.24 563.435 47.16 561.115 49C558.875 50.76 557.755 53.2 557.755 56.32C557.755 58.4 558.275 60.16 559.315 61.6C560.435 63.04 562.075 64.24 564.235 65.2C566.395 66.16 569.155 67 572.515 67.72L575.275 68.32C581.275 69.6 586.475 71.24 590.875 73.24C595.355 75.24 598.835 77.88 601.315 81.16C603.795 84.44 605.035 88.64 605.035 93.76C605.035 98.88 603.715 103.4 601.075 107.32C598.515 111.16 594.835 114.2 590.035 116.44C585.315 118.6 579.715 119.68 573.235 119.68Z" fill="#32A7B1"/>
<path opacity="0.05" d="M26.56 233.12C19.6267 233.12 14.1333 231.2 10.08 227.36C6.02667 223.467 4 217.92 4 210.72V197.28C4 190.08 6.02667 184.56 10.08 180.72C14.1333 176.827 19.6267 174.88 26.56 174.88C33.44 174.88 38.7467 176.773 42.48 180.56C46.2667 184.293 48.16 189.44 48.16 196V196.48H37.76V195.68C37.76 192.373 36.8267 189.653 34.96 187.52C33.1467 185.387 30.3467 184.32 26.56 184.32C22.8267 184.32 19.8933 185.467 17.76 187.76C15.6267 190.053 14.56 193.173 14.56 197.12V210.88C14.56 214.773 15.6267 217.893 17.76 220.24C19.8933 222.533 22.8267 223.68 26.56 223.68C30.3467 223.68 33.1467 222.613 34.96 220.48C36.8267 218.293 37.76 215.573 37.76 212.32V210.88H48.16V212C48.16 218.56 46.2667 223.733 42.48 227.52C38.7467 231.253 33.44 233.12 26.56 233.12ZM52.0594 232L66.7794 176H85.1794L99.8994 232H89.0194L85.9794 219.68H65.9794L62.9394 232H52.0594ZM68.4594 209.92H83.4994L76.6994 182.64H75.2594L68.4594 209.92ZM106.362 232V176H130.682C134.202 176 137.269 176.613 139.882 177.84C142.496 179.067 144.523 180.8 145.963 183.04C147.402 185.28 148.122 187.92 148.122 190.96V191.92C148.122 195.28 147.322 198 145.722 200.08C144.122 202.16 142.149 203.68 139.802 204.64V206.08C141.936 206.187 143.589 206.933 144.762 208.32C145.936 209.653 146.522 211.44 146.522 213.68V232H135.962V215.2C135.962 213.92 135.616 212.88 134.922 212.08C134.282 211.28 133.189 210.88 131.642 210.88H116.922V232H106.362ZM116.922 201.28H129.562C132.069 201.28 134.016 200.613 135.402 199.28C136.842 197.893 137.562 196.08 137.562 193.84V193.04C137.562 190.8 136.869 189.013 135.482 187.68C134.096 186.293 132.122 185.6 129.562 185.6H116.922V201.28ZM176.029 233.12C172.189 233.12 168.696 232.267 165.549 230.56C162.456 228.8 159.976 226.267 158.109 222.96C156.296 219.6 155.389 215.52 155.389 210.72V197.28C155.389 190.08 157.416 184.56 161.469 180.72C165.523 176.827 171.016 174.88 177.949 174.88C184.829 174.88 190.136 176.72 193.869 180.4C197.656 184.027 199.549 188.96 199.549 195.2V195.52H189.149V194.88C189.149 192.907 188.723 191.12 187.869 189.52C187.069 187.92 185.843 186.667 184.189 185.76C182.536 184.8 180.456 184.32 177.949 184.32C174.216 184.32 171.283 185.467 169.149 187.76C167.016 190.053 165.949 193.173 165.949 197.12V210.88C165.949 214.773 167.016 217.92 169.149 220.32C171.283 222.667 174.269 223.84 178.109 223.84C181.949 223.84 184.749 222.827 186.509 220.8C188.269 218.773 189.149 216.213 189.149 213.12V212.32H175.869V203.36H199.549V232H189.789V226.64H188.349C187.976 227.547 187.363 228.507 186.509 229.52C185.709 230.533 184.483 231.387 182.829 232.08C181.176 232.773 178.909 233.12 176.029 233.12ZM231.158 233.12C224.118 233.12 218.518 231.2 214.358 227.36C210.198 223.467 208.118 217.92 208.118 210.72V197.28C208.118 190.08 210.198 184.56 214.358 180.72C218.518 176.827 224.118 174.88 231.158 174.88C238.198 174.88 243.798 176.827 247.958 180.72C252.118 184.56 254.198 190.08 254.198 197.28V210.72C254.198 217.92 252.118 223.467 247.958 227.36C243.798 231.2 238.198 233.12 231.158 233.12ZM231.158 223.68C235.105 223.68 238.171 222.533 240.358 220.24C242.545 217.947 243.638 214.88 243.638 211.04V196.96C243.638 193.12 242.545 190.053 240.358 187.76C238.171 185.467 235.105 184.32 231.158 184.32C227.265 184.32 224.198 185.467 221.958 187.76C219.771 190.053 218.678 193.12 218.678 196.96V211.04C218.678 214.88 219.771 217.947 221.958 220.24C224.198 222.533 227.265 223.68 231.158 223.68ZM296.813 232C293.506 232 290.6 231.413 288.093 230.24C285.64 229.013 283.72 227.28 282.333 225.04C280.946 222.747 280.253 220.027 280.253 216.88C280.253 214.587 280.653 212.587 281.453 210.88C282.306 209.173 283.453 207.76 284.893 206.64C286.333 205.52 287.933 204.693 289.693 204.16V203.04C287.026 202.24 284.84 200.853 283.133 198.88C281.426 196.907 280.573 194.293 280.573 191.04C280.573 187.787 281.293 185.04 282.733 182.8C284.173 180.56 286.12 178.88 288.573 177.76C291.08 176.587 293.933 176 297.133 176H305.853V184.32H298.973C296.573 184.32 294.573 184.96 292.973 186.24C291.426 187.52 290.653 189.413 290.653 191.92C290.653 193.68 291.026 195.12 291.773 196.24C292.573 197.36 293.586 198.187 294.813 198.72C296.093 199.253 297.48 199.52 298.973 199.52H306.733V192.32H316.813V199.52H324.173V207.84H316.813V232H296.813ZM298.653 223.68H306.733V207.84H298.653C296.306 207.84 294.333 208.507 292.733 209.84C291.133 211.173 290.333 213.147 290.333 215.76C290.333 218.427 291.16 220.427 292.813 221.76C294.52 223.04 296.466 223.68 298.653 223.68ZM350.391 232V176H360.951V222.4H386.551V232H350.391ZM413.396 233.12C406.356 233.12 400.756 231.2 396.596 227.36C392.436 223.467 390.356 217.92 390.356 210.72V197.28C390.356 190.08 392.436 184.56 396.596 180.72C400.756 176.827 406.356 174.88 413.396 174.88C420.436 174.88 426.036 176.827 430.196 180.72C434.356 184.56 436.436 190.08 436.436 197.28V210.72C436.436 217.92 434.356 223.467 430.196 227.36C426.036 231.2 420.436 233.12 413.396 233.12ZM413.396 223.68C417.342 223.68 420.409 222.533 422.596 220.24C424.782 217.947 425.876 214.88 425.876 211.04V196.96C425.876 193.12 424.782 190.053 422.596 187.76C420.409 185.467 417.342 184.32 413.396 184.32C409.502 184.32 406.436 185.467 404.196 187.76C402.009 190.053 400.916 193.12 400.916 196.96V211.04C400.916 214.88 402.009 217.947 404.196 220.24C406.436 222.533 409.502 223.68 413.396 223.68ZM464.818 233.12C460.978 233.12 457.485 232.267 454.338 230.56C451.245 228.8 448.765 226.267 446.898 222.96C445.085 219.6 444.178 215.52 444.178 210.72V197.28C444.178 190.08 446.205 184.56 450.258 180.72C454.311 176.827 459.805 174.88 466.738 174.88C473.618 174.88 478.925 176.72 482.658 180.4C486.445 184.027 488.338 188.96 488.338 195.2V195.52H477.938V194.88C477.938 192.907 477.511 191.12 476.658 189.52C475.858 187.92 474.631 186.667 472.978 185.76C471.325 184.8 469.245 184.32 466.738 184.32C463.005 184.32 460.071 185.467 457.938 187.76C455.805 190.053 454.738 193.173 454.738 197.12V210.88C454.738 214.773 455.805 217.92 457.938 220.32C460.071 222.667 463.058 223.84 466.898 223.84C470.738 223.84 473.538 222.827 475.298 220.8C477.058 218.773 477.938 216.213 477.938 213.12V212.32H464.658V203.36H488.338V232H478.578V226.64H477.138C476.765 227.547 476.151 228.507 475.298 229.52C474.498 230.533 473.271 231.387 471.618 232.08C469.965 232.773 467.698 233.12 464.818 233.12ZM498.187 232V176H508.747V232H498.187ZM538.481 233.12C534.161 233.12 530.347 232.347 527.041 230.8C523.734 229.253 521.147 227.04 519.281 224.16C517.414 221.28 516.481 217.813 516.481 213.76V211.52H526.881V213.76C526.881 217.12 527.921 219.653 530.001 221.36C532.081 223.013 534.907 223.84 538.481 223.84C542.107 223.84 544.801 223.12 546.561 221.68C548.374 220.24 549.281 218.4 549.281 216.16C549.281 214.613 548.827 213.36 547.921 212.4C547.067 211.44 545.787 210.667 544.081 210.08C542.427 209.44 540.401 208.853 538.001 208.32L536.161 207.92C532.321 207.067 529.014 206 526.241 204.72C523.521 203.387 521.414 201.653 519.921 199.52C518.481 197.387 517.761 194.613 517.761 191.2C517.761 187.787 518.561 184.88 520.161 182.48C521.814 180.027 524.107 178.16 527.041 176.88C530.027 175.547 533.521 174.88 537.521 174.88C541.521 174.88 545.067 175.573 548.161 176.96C551.307 178.293 553.761 180.32 555.521 183.04C557.334 185.707 558.241 189.067 558.241 193.12V195.52H547.841V193.12C547.841 190.987 547.414 189.28 546.561 188C545.761 186.667 544.587 185.707 543.041 185.12C541.494 184.48 539.654 184.16 537.521 184.16C534.321 184.16 531.947 184.773 530.401 186C528.907 187.173 528.161 188.8 528.161 190.88C528.161 192.267 528.507 193.44 529.201 194.4C529.947 195.36 531.041 196.16 532.481 196.8C533.921 197.44 535.761 198 538.001 198.48L539.841 198.88C543.841 199.733 547.307 200.827 550.241 202.16C553.227 203.493 555.547 205.253 557.201 207.44C558.854 209.627 559.681 212.427 559.681 215.84C559.681 219.253 558.801 222.267 557.041 224.88C555.334 227.44 552.881 229.467 549.681 230.96C546.534 232.4 542.801 233.12 538.481 233.12ZM578.479 232V185.6H562.159V176H605.359V185.6H589.039V232H578.479ZM612.311 232V176H622.871V232H612.311ZM654.444 233.12C647.511 233.12 642.018 231.2 637.964 227.36C633.911 223.467 631.884 217.92 631.884 210.72V197.28C631.884 190.08 633.911 184.56 637.964 180.72C642.018 176.827 647.511 174.88 654.444 174.88C661.324 174.88 666.631 176.773 670.364 180.56C674.151 184.293 676.044 189.44 676.044 196V196.48H665.644V195.68C665.644 192.373 664.711 189.653 662.844 187.52C661.031 185.387 658.231 184.32 654.444 184.32C650.711 184.32 647.778 185.467 645.644 187.76C643.511 190.053 642.444 193.173 642.444 197.12V210.88C642.444 214.773 643.511 217.893 645.644 220.24C647.778 222.533 650.711 223.68 654.444 223.68C658.231 223.68 661.031 222.613 662.844 220.48C664.711 218.293 665.644 215.573 665.644 212.32V210.88H676.044V212C676.044 218.56 674.151 223.733 670.364 227.52C666.631 231.253 661.324 233.12 654.444 233.12ZM703.849 233.12C699.529 233.12 695.715 232.347 692.409 230.8C689.102 229.253 686.515 227.04 684.649 224.16C682.782 221.28 681.849 217.813 681.849 213.76V211.52H692.249V213.76C692.249 217.12 693.289 219.653 695.369 221.36C697.449 223.013 700.275 223.84 703.849 223.84C707.475 223.84 710.169 223.12 711.929 221.68C713.742 220.24 714.649 218.4 714.649 216.16C714.649 214.613 714.195 213.36 713.289 212.4C712.435 211.44 711.155 210.667 709.449 210.08C707.795 209.44 705.769 208.853 703.369 208.32L701.529 207.92C697.689 207.067 694.382 206 691.609 204.72C688.889 203.387 686.782 201.653 685.289 199.52C683.849 197.387 683.129 194.613 683.129 191.2C683.129 187.787 683.929 184.88 685.529 182.48C687.182 180.027 689.475 178.16 692.409 176.88C695.395 175.547 698.889 174.88 702.889 174.88C706.889 174.88 710.435 175.573 713.529 176.96C716.675 178.293 719.129 180.32 720.889 183.04C722.702 185.707 723.609 189.067 723.609 193.12V195.52H713.209V193.12C713.209 190.987 712.782 189.28 711.929 188C711.129 186.667 709.955 185.707 708.409 185.12C706.862 184.48 705.022 184.16 702.889 184.16C699.689 184.16 697.315 184.773 695.769 186C694.275 187.173 693.529 188.8 693.529 190.88C693.529 192.267 693.875 193.44 694.569 194.4C695.315 195.36 696.409 196.16 697.849 196.8C699.289 197.44 701.129 198 703.369 198.48L705.209 198.88C709.209 199.733 712.675 200.827 715.609 202.16C718.595 203.493 720.915 205.253 722.569 207.44C724.222 209.627 725.049 212.427 725.049 215.84C725.049 219.253 724.169 222.267 722.409 224.88C720.702 227.44 718.249 229.467 715.049 230.96C711.902 232.4 708.169 233.12 703.849 233.12Z" fill="#32A7B1"/>
</svg>
